{
  "accessors": [
    {
      "bufferView": 2,
      "componentType": 5126,
      "count": 65532,
      "max": [
        163.51499938964844,
        154.99400329589844,
        523.1099853515625
      ],
      "min": [
        -160.697998046875,
        -244.60000610351562,
        -286.489990234375
      ],
      "type": "VEC3"
    },
    {
      "bufferView": 2,
      "byteOffset": 786384,
      "componentType": 5126,
      "count": 65532,
      "max": [
        1,
        0.99999499320983887,
        0.99998980760574341
      ],
      "min": [
        -1,
        -1,
        -1
      ],
      "type": "VEC3"
    },
    {
      "bufferView": 1,
      "componentType": 5126,
      "count": 65532,
      "max": [
        0.9991610050201416,
        0.99568498134613037
      ],
      "min": [
        4.5000000682193786e-05,
        0.00092800002312287688
      ],
      "type": "VEC2"
    },
    {
      "bufferView": 0,
      "componentType": 5125,
      "count": 341325,
      "max": [
        65531
      ],
      "min": [
        0
      ],
      "type": "SCALAR"
    },
    {
      "bufferView": 2,
      "byteOffset": 1572768,
      "componentType": 5126,
      "count": 65532,
      "max": [
        163.51499938964844,
        145.68499755859375,
        525.427001953125
      ],
      "min": [
        -163.41799926757812,
        -290.73098754882812,
        -286.489990234375
      ],
      "type": "VEC3"
    },
    {
      "bufferView": 2,
      "byteOffset": 2359152,
      "componentType": 5126,
      "count": 65532,
      "max": [
        1,
        1,
        1
      ],
      "min": [
        -1,
        -1,
        -1
      ],
      "type": "VEC3"
    },
    {
      "bufferView": 1,
      "byteOffset": 524256,
      "componentType": 5126,
      "count": 65532,
      "max": [
        0.99988901615142822,
        0.96662700176239014
      ],
      "min": [
        -0,
        0.00093500001821666956
      ],
      "type": "VEC2"
    },
    {
      "bufferView": 0,
      "byteOffset": 1365300,
      "componentType": 5125,
      "count": 304653,
      "max": [
        65531
      ],
      "min": [
        0
      ],
      "type": "SCALAR"
    },
    {
      "bufferView": 2,
      "byteOffset": 3145536,
      "componentType": 5126,
      "count": 12178,
      "max": [
        163.51499938964844,
        127.94899749755859,
        417.47799682617188
      ],
      "min": [
        -165.35499572753906,
        -229.58099365234375,
        -285.22198486328125
      ],
      "type": "VEC3"
    },
    {
      "bufferView": 2,
      "byteOffset": 3291672,
      "componentType": 5126,
      "count": 12178,
      "max": [
        1,
        0.99998718500137329,
        0.99997043609619141
      ],
      "min": [
        -0.99996566772460938,
        -0.99999654293060303,
        -0.99967461824417114
      ],
      "type": "VEC3"
    },
    {
      "bufferView": 1,
      "byteOffset": 1048512,
      "componentType": 5126,
      "count": 12178,
      "max": [
        0.96378201246261597,
        0.98959898948669434
      ],
      "min": [
        0.0005549999768845737,
        0.40300199389457703
      ],
      "type": "VEC2"
    },
    {
      "bufferView": 0,
      "byteOffset": 2583912,
      "componentType": 5125,
      "count": 58977,
      "max": [
        12177
      ],
      "min": [
        0
      ],
      "type": "SCALAR"
    },
    {
      "bufferView": 2,
      "byteOffset": 3437808,
      "componentType": 5126,
      "count": 6,
      "max": [
        106.77400207519531,
        -203.50599670410156,
        199.74899291992188
      ],
      "min": [
        103.68599700927734,
        -206.9949951171875,
        196.25999450683594
      ],
      "type": "VEC3"
    },
    {
      "bufferView": 2,
      "byteOffset": 3437880,
      "componentType": 5126,
      "count": 6,
      "max": [
        0.68077820539474487,
        -0.54357314109802246,
        0.4909881055355072
      ],
      "min": [
        0.65304207801818848,
        -0.60651707649230957,
        0.45351207256317139
      ],
      "type": "VEC3"
    },
    {
      "bufferView": 1,
      "byteOffset": 1145936,
      "componentType": 5126,
      "count": 6,
      "max": [
        0,
        0
      ],
      "min": [
        0,
        0
      ],
      "type": "VEC2"
    },
    {
      "bufferView": 0,
      "byteOffset": 2819820,
      "componentType": 5125,
      "count": 6,
      "max": [
        5
      ],
      "min": [
        0
      ],
      "type": "SCALAR"
    },
    {
      "bufferView": 2,
      "byteOffset": 3437952,
      "componentType": 5126,
      "count": 300,
      "max": [
        -112.49500274658203,
        120.97100067138672,
        -194.50799560546875
      ],
      "min": [
        -138.13212585449219,
        112.49741363525391,
        -236.37600708007812
      ],
      "type": "VEC3"
    },
    {
      "bufferView": 2,
      "byteOffset": 3441552,
      "componentType": 5126,
      "count": 300,
      "max": [
        0.92453849315643311,
        0.37520191073417664,
        0.86774015426635742
      ],
      "min": [
        -0.98552089929580688,
        -0.99764138460159302,
        -0.9956125020980835
      ],
      "type": "VEC3"
    },
    {
      "bufferView": 1,
      "byteOffset": 1145984,
      "componentType": 5126,
      "count": 300,
      "max": [
        0.68528199195861816,
        0.99853998422622681
      ],
      "min": [
        0.37295699119567871,
        0.8747599720954895
      ],
      "type": "VEC2"
    },
    {
      "bufferView": 0,
      "byteOffset": 2819844,
      "componentType": 5125,
      "count": 720,
      "max": [
        299
      ],
      "min": [
        0
      ],
      "type": "SCALAR"
    }
  ],
  "asset": {
    "extras": {
      "author": "Limerick3D (https://sketchfab.com/Limerick3D)",
      "license": "CC0-1.0 (http://creativecommons.org/publicdomain/zero/1.0/)",
      "source": "https://sketchfab.com/3d-models/cg-003-figure-sculpture-seded-sapentia-819f51e0724e41119b1c126ce08f6396",
      "title": "CG 003 Figure Sculpture (Seded Sapentia)"
    },
    "generator": "Sketchfab-7.80.0",
    "version": "2.0"
  },
  "bufferViews": [
    {
      "buffer": 0,
      "byteLength": 2822724,
      "byteOffset": 0,
      "name": "floatBufferViews",
      "target": 34963
    },
    {
      "buffer": 0,
      "byteLength": 1148384,
      "byteOffset": 2822724,
      "byteStride": 8,
      "name": "floatBufferViews",
      "target": 34962
    },
    {
      "buffer": 0,
      "byteLength": 3445152,
      "byteOffset": 3971108,
      "byteStride": 12,
      "name": "floatBufferViews",
      "target": 34962
    }
  ],
  "buffers": [
    {
      "byteLength": 7416260,
      "uri": "scene.bin"
    }
  ],
  "images": [
    {
      "uri": "textures/initialShadingGroup_baseColor.png"
    },
    {
      "uri": "textures/initialShadingGroup_metallicRoughness.png"
    }
  ],
  "materials": [
    {
      "doubleSided": true,
      "name": "initialShadingGroup",
      "pbrMetallicRoughness": {
        "baseColorFactor": [
          1,
          1,
          1,
          1
        ],
        "baseColorTexture": {
          "index": 0,
          "texCoord": 0
        },
        "metallicFactor": 0.062272736520478218,
        "metallicRoughnessTexture": {
          "index": 1,
          "texCoord": 0
        },
        "roughnessFactor": 0.59999999999999998
      }
    }
  ],
  "meshes": [
    {
      "primitives": [
        {
          "attributes": {
            "NORMAL": 1,
            "POSITION": 0,
            "TEXCOORD_0": 2
          },
          "indices": 3,
          "material": 0,
          "mode": 4
        }
      ]
    },
    {
      "primitives": [
        {
          "attributes": {
            "NORMAL": 5,
            "POSITION": 4,
            "TEXCOORD_0": 6
          },
          "indices": 7,
          "material": 0,
          "mode": 4
        }
      ]
    },
    {
      "primitives": [
        {
          "attributes": {
            "NORMAL": 9,
            "POSITION": 8,
            "TEXCOORD_0": 10
          },
          "indices": 11,
          "material": 0,
          "mode": 4
        }
      ]
    },
    {
      "primitives": [
        {
          "attributes": {
            "NORMAL": 13,
            "POSITION": 12,
            "TEXCOORD_0": 14
          },
          "indices": 15,
          "material": 0,
          "mode": 4
        }
      ]
    },
    {
      "primitives": [
        {
          "attributes": {
            "NORMAL": 17,
            "POSITION": 16,
            "TEXCOORD_0": 18
          },
          "indices": 19,
          "material": 0,
          "mode": 4
        }
      ]
    }
  ],
  "nodes": [
    {
      "children": [
        1
      ],
      "name": "RootNode (gltf orientation matrix)",
      "rotation": [
        -0.70710678118654746,
        -0,
        -0,
        0.70710678118654757
      ]
    },
    {
      "children": [
        2
      ],
      "name": "RootNode (model correction matrix)"
    },
    {
      "children": [
        3,
        4,
        5,
        6,
        7
      ],
      "name": "Madonna_and_Child_All_in_One_v6.obj.cleaner.materialmerger.gles"
    },
    {
      "mesh": 0,
      "name": ""
    },
    {
      "mesh": 1,
      "name": ""
    },
    {
      "mesh": 2,
      "name": ""
    },
    {
      "mesh": 3,
      "name": ""
    },
    {
      "mesh": 4,
      "name": ""
    }
  ],
  "samplers": [
    {
      "magFilter": 9729,
      "minFilter": 9987,
      "wrapS": 10497,
      "wrapT": 10497
    }
  ],
  "scene": 0,
  "scenes": [
    {
      "name": "OSG_Scene",
      "nodes": [
        0
      ]
    }
  ],
  "textures": [
    {
      "sampler": 0,
      "source": 0
    },
    {
      "sampler": 0,
      "source": 1
    }
  ]
}

